<svg width="105" height="105" viewBox="0 0 105 105" fill="none" xmlns="http://www.w3.org/2000/svg">
<g clip-path="url(#clip0_844_2402)">
<rect x="0.5" y="0.925781" width="104" height="104" rx="22.0714" fill="#303030"/>
<path d="M47.1198 19.842C41.1784 20.5208 36.266 22.2664 31.6855 25.3697C31.5196 25.499 30.2251 26.5335 28.8642 27.6649C16.2512 38.0739 13.961 56.92 23.7194 69.9151C32.0838 81.0029 45.5598 85.6255 59.7328 82.199C64.8443 80.9706 69.7899 78.1906 74.0385 74.1175C78.1543 70.1737 80.345 66.8118 82.1042 61.7689C86.917 47.9333 81.7722 33.2573 69.1925 24.9818C64.6452 22.0078 60.1974 20.4885 53.9242 19.8097C50.605 19.4541 50.6382 19.4541 47.1198 19.842ZM42.6057 39.9811C44.9623 41.1125 47.153 43.44 48.1156 45.8645C48.8126 47.6747 49.5096 51.6832 49.2109 52.2004C49.1445 52.362 44.9623 52.459 39.9503 52.459H30.8557V53.4288C30.8557 54.6572 31.7851 57.3079 32.4821 58.0837C32.7809 58.407 33.6439 59.0212 34.4405 59.4738C35.6022 60.1526 36.2992 60.2819 38.2907 60.3142C41.278 60.3142 43.2363 59.4091 44.2321 57.5342C44.8627 56.3704 44.8959 56.3381 46.8211 56.3381C48.9454 56.3381 49.0117 56.4351 48.3147 58.1161C47.0202 61.1224 44.2321 63.1266 40.3818 63.8054C36.266 64.5489 32.3162 63.2882 29.5944 60.3789C27.5697 58.213 26.8395 56.1765 26.6071 52.0388C26.4744 49.1617 26.5408 48.6445 27.3706 46.4463C29.1961 41.5651 33.5443 38.7204 38.7554 39.0113C40.1163 39.1083 41.4108 39.4316 42.6057 39.9811ZM57.0774 40.0781C57.5421 40.7246 58.0732 41.4681 58.2391 41.7591C59.434 43.731 62.5541 47.5778 62.72 47.3838C62.8528 47.2222 64.3464 45.2826 66.006 42.9875L69.0597 38.882H71.3831C72.8768 38.882 73.6734 39.0113 73.6734 39.2376C73.6734 39.4639 71.9142 41.8884 69.7567 44.6684C67.5993 47.4485 65.7073 49.9052 65.5745 50.1315C65.2758 50.6164 66.006 51.7478 71.3168 58.7626C73.3415 61.4133 75.0011 63.7085 75.0011 63.8378C75.0011 63.9994 73.8394 64.0964 72.4121 64.0964H69.8231L67.9312 61.4133C66.869 59.9586 65.2094 57.6312 64.2469 56.2735L62.4877 53.7844L58.8698 58.9242L55.2518 64.0964H52.862C51.5343 64.0964 50.439 63.9994 50.439 63.8378C50.439 63.5145 51.4016 62.1245 54.422 58.1161C55.8825 56.1442 57.708 53.7197 58.4383 52.6853L59.7659 50.8104L58.5047 49.1294C57.8408 48.1919 56.8451 46.9312 56.3472 46.317C53.725 43.0521 51.1028 39.4962 51.1028 39.2053C51.1028 39.0113 52.165 38.882 53.6918 38.882H56.2476L57.0774 40.0781Z" fill="white"/>
<path d="M34.6783 43.3126C32.5872 44.3794 31.4255 45.8987 30.994 48.1292L30.7949 49.2283H44.8683L44.6691 47.9999C44.3704 46.3836 42.8436 44.3794 41.2835 43.5066C39.6903 42.6015 36.2384 42.5045 34.6783 43.3126Z" fill="white"/>
<path fill-rule="evenodd" clip-rule="evenodd" d="M59.0529 31.9813C58.521 31.778 57.9302 31.7944 57.4104 32.0267C56.8905 32.2591 56.4843 32.6884 56.2809 33.2202L42.3243 69.7222C42.219 69.9865 42.1673 70.2691 42.1722 70.5535C42.1771 70.838 42.2384 71.1186 42.3527 71.3792C42.467 71.6397 42.6319 71.8749 42.8378 72.0712C43.0438 72.2675 43.2867 72.4208 43.5524 72.5224C43.8182 72.624 44.1015 72.6717 44.3858 72.6629C44.6702 72.654 44.9499 72.5888 45.2088 72.4709C45.4678 72.353 45.7007 72.1848 45.894 71.9761C46.0874 71.7674 46.2374 71.5224 46.3352 71.2553L60.2919 34.7533C60.4951 34.2214 60.4788 33.6306 60.2464 33.1107C60.0141 32.5909 59.5848 32.1846 59.0529 31.9813ZM75.0773 48.8581L63.664 41.8218C63.424 41.6738 63.1573 41.5746 62.879 41.5297C62.6007 41.4848 62.3162 41.4952 62.0419 41.5603C61.7676 41.6253 61.5088 41.7438 61.2803 41.9088C61.0518 42.0739 60.858 42.2824 60.71 42.5223C60.5621 42.7623 60.4628 43.029 60.4179 43.3073C60.3731 43.5856 60.3834 43.8701 60.4485 44.1444C60.5135 44.4187 60.632 44.6775 60.797 44.906C60.9621 45.1345 61.1706 45.3283 61.4105 45.4763L72.2785 52.1765C72.2892 52.2166 72.2892 52.2588 72.2785 52.2989L61.4105 58.9992C61.1642 59.1441 60.9493 59.3366 60.7784 59.5656C60.6075 59.7946 60.484 60.0554 60.4151 60.3327C60.3463 60.6101 60.3335 60.8984 60.3775 61.1807C60.4215 61.463 60.5215 61.7337 60.6714 61.977C60.8214 62.2202 61.0184 62.431 61.2509 62.5971C61.4835 62.7632 61.7468 62.8813 62.0255 62.9443C62.3042 63.0073 62.5927 63.0141 62.874 62.9642C63.1554 62.9143 63.424 62.8087 63.664 62.6537L75.0773 55.6174L75.2544 55.4403C76.1021 54.59 76.5781 53.4384 76.5781 52.2377C76.5781 51.0371 76.1021 49.8855 75.2544 49.0352L75.0773 48.8581Z" fill="#303030"/>
<mask id="mask0_844_2402" style="mask-type:luminance" maskUnits="userSpaceOnUse" x="17" y="17" width="69" height="70">
<path d="M17 86.5924V17.9258H85.6452V86.5924H17Z" fill="white"/>
</mask>
<g mask="url(#mask0_844_2402)">
<path fill-rule="evenodd" clip-rule="evenodd" d="M41.191 59.0053L30.3231 52.305C30.3124 52.2649 30.3124 52.2227 30.3231 52.1826L41.191 45.4823C41.4373 45.3375 41.6522 45.1449 41.8232 44.9159C41.9941 44.6869 42.1176 44.4261 42.1864 44.1488C42.2553 43.8715 42.2681 43.5832 42.224 43.3008C42.18 43.0185 42.0801 42.7478 41.9301 42.5046C41.7802 42.2614 41.5831 42.0505 41.3506 41.8844C41.1181 41.7183 40.8548 41.6003 40.5761 41.5373C40.2974 41.4742 40.0089 41.4675 39.7275 41.5174C39.4462 41.5673 39.1776 41.6728 38.9376 41.8278L27.5243 48.8641L27.3471 49.0413C26.4994 49.8915 26.0234 51.0432 26.0234 52.2438C26.0234 53.4444 26.4994 54.5961 27.3471 55.4463L27.5243 55.6234L38.9376 62.6597C39.4222 62.9586 40.0057 63.0526 40.5596 62.9213C41.1136 62.7899 41.5927 62.4438 41.8916 61.9592C42.1904 61.4746 42.2845 60.8911 42.1531 60.3372C42.0217 59.7832 41.6757 59.3041 41.191 59.0053Z" fill="#303030"/>
</g>
<mask id="mask1_844_2402" style="mask-type:luminance" maskUnits="userSpaceOnUse" x="17" y="17" width="69" height="70">
<path d="M17 86.5924V17.9258H85.6452V86.5924H17Z" fill="white"/>
</mask>
<g mask="url(#mask1_844_2402)">
<path fill-rule="evenodd" clip-rule="evenodd" d="M75.2309 55.444L75.0537 55.6212L63.6404 62.6575C63.1558 62.9563 62.5723 63.0504 62.0183 62.919C61.4644 62.7876 60.9853 62.4416 60.6864 61.957C60.3876 61.4723 60.2935 60.8889 60.4249 60.3349C60.5563 59.7809 60.9023 59.3018 61.387 59.003L72.2549 52.3027C72.2656 52.2626 72.2656 52.2204 72.2549 52.1803L61.387 45.4801C61.1406 45.3352 60.9257 45.1426 60.7548 44.9136C60.5839 44.6847 60.4604 44.4239 60.3916 44.1465C60.3227 43.8692 60.3099 43.5809 60.3539 43.2986C60.398 43.0162 60.4979 42.7455 60.6479 42.5023C60.7978 42.2591 60.9949 42.0482 61.2274 41.8821C61.4599 41.716 61.7232 41.598 62.0019 41.535C62.2806 41.472 62.5691 41.4652 62.8505 41.5151C63.1318 41.565 63.4004 41.6705 63.6404 41.8256L75.0537 48.8619L75.2309 49.039C76.0785 49.8893 76.5546 51.0409 76.5546 52.2415C76.5546 53.4421 76.0785 54.5938 75.2309 55.444ZM46.3116 71.2591C46.2138 71.5262 46.0638 71.7712 45.8705 71.9799C45.6771 72.1886 45.4442 72.3568 45.1853 72.4746C44.9264 72.5925 44.6466 72.6578 44.3622 72.6667C44.0779 72.6755 43.7946 72.6278 43.5289 72.5262C43.2631 72.4246 43.0202 72.2712 42.8142 72.075C42.6083 71.8787 42.4434 71.6435 42.3291 71.3829C42.2148 71.1224 42.1535 70.8418 42.1486 70.5573C42.1437 70.2729 42.1954 69.9903 42.3007 69.726L56.2574 33.224C56.3552 32.9569 56.5052 32.7118 56.6985 32.5031C56.8919 32.2945 57.1248 32.1263 57.3837 32.0084C57.6426 31.8905 57.9224 31.8252 58.2068 31.8164C58.4911 31.8075 58.7744 31.8553 59.0401 31.9569C59.3059 32.0584 59.5488 32.2118 59.7547 32.4081C59.9607 32.6043 60.1256 32.8396 60.2399 33.1001C60.3541 33.3606 60.4155 33.6413 60.4204 33.9257C60.4253 34.2102 60.3736 34.4928 60.2683 34.7571L46.3116 71.2591ZM40.0537 62.9774C39.6693 62.9774 39.2796 62.8743 38.9286 62.6575L27.5153 55.6212L27.3381 55.444C26.4904 54.5938 26.0144 53.4421 26.0144 52.2415C26.0144 51.0409 26.4904 49.8893 27.3381 49.039L27.5153 48.8619L38.9286 41.8256C39.4132 41.5267 39.9967 41.4327 40.5506 41.564C41.1046 41.6954 41.5837 42.0415 41.8825 42.5261C42.1814 43.0107 42.2755 43.5942 42.1441 44.1482C42.0127 44.7021 41.6666 45.1812 41.182 45.4801L30.3141 52.1803C30.3034 52.2204 30.3034 52.2626 30.3141 52.3027L41.182 59.003C41.5797 59.2484 41.8865 59.6169 42.0558 60.0525C42.2251 60.4881 42.2476 60.9671 42.12 61.4166C41.9923 61.8662 41.7215 62.2619 41.3486 62.5436C40.9757 62.8252 40.521 62.9776 40.0537 62.9774ZM51.2845 17.8867C32.311 17.8867 16.9297 33.268 16.9297 52.2415C16.9297 71.215 32.311 86.5963 51.2845 86.5963C70.258 86.5963 85.6393 71.215 85.6393 52.2415C85.6393 33.268 70.258 17.8867 51.2845 17.8867Z" fill="white"/>
</g>
</g>
<defs>
<clipPath id="clip0_844_2402">
<rect x="0.5" y="0.925781" width="104" height="104" rx="22.0714" fill="white"/>
</clipPath>
</defs>
</svg>
