<svg width="105" height="105" viewBox="0 0 105 105" fill="none" xmlns="http://www.w3.org/2000/svg">
<g clip-path="url(#clip0_844_2468)">
<rect x="0.5" y="0.925781" width="104" height="104" rx="22.0736" fill="#303030"/>
<path d="M31.0386 23.001C27.8345 24.2444 24.7738 27.3528 23.5783 30.5569C21.761 35.4348 22.4306 43.1342 25.3477 49.7815L26.5911 52.6508L25.3477 55.5201C22.4306 62.1674 21.761 69.8668 23.5783 74.7447C24.7738 77.9966 27.8823 81.0572 31.1342 82.3006C35.9643 84.1179 43.7115 83.4484 50.3588 80.5312L53.2281 79.2878L56.0974 80.5312C62.7447 83.4484 70.4441 84.1179 75.322 82.3006C78.5739 81.1051 81.6345 77.9966 82.8779 74.7447C84.6952 69.9146 84.0257 62.1674 81.1085 55.5201L79.8651 52.6508L81.1085 49.7815C84.0257 43.1342 84.6952 35.387 82.8779 30.5569C81.6345 27.305 78.5739 24.1965 75.322 23.001C70.4441 21.1837 62.7447 21.8532 56.0974 24.7704L53.2281 26.0138L50.3588 24.7704C43.7593 21.9011 35.7251 21.1837 31.0386 23.001ZM45.4809 27.305C47.1068 27.8789 48.4459 28.5005 48.4459 28.644C48.3981 28.8353 47.3938 29.6005 46.1982 30.3656C43.042 32.3742 35.1035 40.1214 31.8515 44.3775L29.0778 47.9642L28.504 46.6252C28.217 45.86 27.5475 43.6602 27.1171 41.6995C25.3955 34.0479 27.5954 28.7397 33.4297 26.5398C35.9164 25.6312 41.5595 25.966 45.4809 27.305ZM72.4048 26.3485C78.5261 28.0701 81.1085 33.8566 79.3391 41.6995C78.9087 43.6602 78.2392 45.86 77.9522 46.6252L77.3305 48.012L75.2264 45.1905C72.1657 41.03 65.4706 34.287 61.4057 31.2264L57.819 28.5484L59.3972 27.8789C64.0359 26.0138 69.0573 25.4399 72.4048 26.3485ZM57.3408 33.4741C63.0795 37.4911 63.223 37.3477 53.2281 37.3477C45.4331 37.3477 44.5723 37.252 45.0983 36.6303C46.1504 35.3391 52.4151 31.1308 53.2281 31.1308C53.6585 31.1308 55.5236 32.1829 57.3408 33.4741ZM42.7072 52.7464L42.6594 66.7584L39.5031 63.4108C35.8686 59.5372 31.7081 53.7985 31.7081 52.6508C31.7081 51.5509 35.7251 45.9079 39.3596 41.9864C40.9856 40.217 42.4203 38.7823 42.5159 38.7823C42.6116 38.7823 42.7072 45.0949 42.7072 52.7464ZM72.4048 48.5381C73.696 50.3553 74.7481 52.2204 74.7481 52.6508C74.7481 53.7985 70.5876 59.5372 66.9531 63.4108L63.7968 66.7584V52.6508V38.5432L66.9531 41.8908C68.6747 43.708 71.1615 46.7208 72.4048 48.5381ZM51.3152 42.8472C51.3152 43.8993 51.5065 44.0428 53.2281 44.0428C54.9497 44.0428 55.141 43.8993 55.141 42.8472C55.141 41.7473 55.3323 41.6517 57.293 41.6517H59.445V44.0428V46.4339H53.2281H47.0112V44.0428V41.6517H49.1632C51.1239 41.6517 51.3152 41.7473 51.3152 42.8472ZM51.3152 51.4552C51.3152 52.5073 51.5065 52.6508 53.2281 52.6508C54.9497 52.6508 55.141 52.5073 55.141 51.4552C55.141 50.3553 55.3323 50.2597 57.293 50.2597H59.445V52.6508V55.0419H53.2281H47.0112V52.6508V50.2597H49.1632C51.1239 50.2597 51.3152 50.3553 51.3152 51.4552ZM31.8994 60.9719C35.1513 65.2281 43.042 72.9275 46.1982 74.8882C47.4416 75.7011 48.4459 76.4663 48.4459 76.6576C48.4459 77.2793 42.4203 79.0009 39.3596 79.2878C33.9557 79.7182 30.0343 77.9966 27.8823 74.1708C26.2563 71.2537 26.2085 65.8976 27.7866 60.8762C28.3605 59.0112 28.9344 57.433 29.03 57.433C29.1257 57.433 30.4169 59.0112 31.8994 60.9719ZM79.3391 63.6021C82.3041 76.5619 73.0744 82.9701 59.3972 77.3749L57.819 76.7532L61.4057 74.0752C65.4706 71.0146 72.1657 64.2716 75.2264 60.1111L77.3305 57.2896L77.9522 58.6764C78.2392 59.4416 78.9087 61.6414 79.3391 63.6021ZM51.3152 60.3024C51.3152 61.6414 51.4109 61.737 53.2281 61.737C55.0454 61.737 55.141 61.6414 55.141 60.3024C55.141 58.9155 55.2366 58.8677 57.293 58.8677H59.445V61.2588V63.6499H53.2281H47.0112V61.2588V58.8677H49.1632C51.2196 58.8677 51.3152 58.9155 51.3152 60.3024ZM61.3101 68.7191C60.2102 70.0581 54.0889 74.1708 53.2281 74.1708C52.4151 74.1708 46.1504 69.9625 45.0983 68.6713C44.5723 68.0496 45.4331 67.9539 53.2281 67.9539C61.2622 67.9539 61.8839 68.0018 61.3101 68.7191Z" fill="white"/>
</g>
<defs>
<clipPath id="clip0_844_2468">
<rect x="0.5" y="0.925781" width="104" height="104" rx="22.0736" fill="white"/>
</clipPath>
</defs>
</svg>
