<svg width="105" height="105" viewBox="0 0 105 105" fill="none" xmlns="http://www.w3.org/2000/svg">
<g clip-path="url(#clip0_844_2489)">
<rect x="0.164062" y="0.925781" width="104" height="104" rx="22.6406" fill="#303030"/>
<path d="M28.5241 9.16293C25.1382 9.56467 22.3387 10.5977 19.7283 12.4343C19.6337 12.5108 18.896 13.123 18.1205 13.7925C10.9326 19.9526 9.62742 31.1057 15.1886 38.7962C19.9553 45.358 27.635 48.0937 35.712 46.0659C38.625 45.3389 41.4434 43.6937 43.8646 41.2832C46.2101 38.9493 47.4585 36.9597 48.461 33.9753C51.2038 25.7874 48.2719 17.1021 41.1029 12.2047C38.5115 10.4447 35.9768 9.54554 32.4017 9.1438C30.5102 8.93336 30.5291 8.93336 28.5241 9.16293ZM25.9515 21.0813C27.2945 21.7509 28.543 23.1283 29.0915 24.5631C29.4887 25.6344 29.886 28.0066 29.7157 28.3127C29.6779 28.4083 27.2945 28.4657 24.4383 28.4657H19.2554V29.0396C19.2554 29.7666 19.7851 31.3353 20.1823 31.7944C20.3525 31.9857 20.8443 32.3492 21.2983 32.6171C21.9604 33.0188 22.3576 33.0953 23.4925 33.1145C25.1949 33.1145 26.3109 32.5788 26.8784 31.4692C27.2378 30.7805 27.2567 30.7614 28.3538 30.7614C29.5644 30.7614 29.6022 30.8188 29.205 31.8136C28.4673 33.5927 26.8784 34.7788 24.6842 35.1806C22.3387 35.6206 20.0877 34.8745 18.5366 33.1527C17.3828 31.871 16.9667 30.6657 16.8342 28.217C16.7586 26.5144 16.7964 26.2083 17.2693 24.9074C18.3097 22.0187 20.7876 20.3352 23.7573 20.5074C24.5329 20.5648 25.2706 20.7561 25.9515 21.0813ZM34.1987 21.1387C34.4635 21.5213 34.7662 21.9613 34.8608 22.1335C35.5417 23.3004 37.3198 25.577 37.4144 25.4622C37.49 25.3666 38.3412 24.2187 39.287 22.8604L41.0272 20.4309H42.3513C43.2025 20.4309 43.6565 20.5074 43.6565 20.6413C43.6565 20.7752 42.654 22.21 41.4244 23.8552C40.1949 25.5005 39.1168 26.9544 39.0411 27.0883C38.8709 27.3753 39.287 28.0448 42.3135 32.1962C43.4673 33.7649 44.4131 35.1232 44.4131 35.1997C44.4131 35.2953 43.7511 35.3527 42.9377 35.3527H41.4623L40.3841 33.7649C39.7788 32.904 38.833 31.5266 38.2845 30.7231L37.2819 29.2501L35.2202 32.2918L33.1584 35.3527H31.7964C31.0398 35.3527 30.4156 35.2953 30.4156 35.1997C30.4156 35.0084 30.9642 34.1858 32.6855 31.8136C33.5178 30.6466 34.5581 29.2118 34.9743 28.5996L35.7309 27.4901L35.0121 26.4953C34.6338 25.9405 34.0663 25.1944 33.7826 24.8309C32.2882 22.8987 30.7939 20.7943 30.7939 20.6222C30.7939 20.5074 31.3992 20.4309 32.2693 20.4309H33.7258L34.1987 21.1387Z" fill="white"/>
<path d="M21.4339 23.0529C20.2422 23.6842 19.5801 24.5833 19.3342 25.9034L19.2208 26.5538H27.2409L27.1274 25.8268C26.9572 24.8703 26.0871 23.6842 25.1981 23.1677C24.2901 22.632 22.3229 22.5746 21.4339 23.0529Z" fill="white"/>
<path d="M90.2087 30.9226C89.9591 30.6328 89.6959 30.3422 89.4193 30.0508C89.6122 29.8432 89.7995 29.6362 89.9811 29.43C93.3961 25.5275 94.8387 21.6119 93.5025 19.2605C92.2216 17.0042 88.4108 16.3314 83.6382 17.2746C83.1687 17.3683 82.7013 17.4736 82.236 17.5904C82.1466 17.2789 82.0523 16.9688 81.953 16.6602C80.3338 11.6998 77.7188 8.4744 75.0463 8.47656C72.4845 8.47656 70.0078 11.4987 68.4269 16.1735C68.2708 16.635 68.1269 17.0994 67.9949 17.5666C67.6843 17.4887 67.3722 17.4166 67.0587 17.3503C62.0244 16.3011 57.9711 16.9934 56.637 19.3492C55.3582 21.6054 56.6944 25.2981 59.8882 29.0233C60.2059 29.3911 60.5322 29.7516 60.8669 30.1049C60.4712 30.516 60.0988 30.9291 59.7499 31.3402C56.6327 35.0134 55.3731 38.6434 56.6497 40.891C57.9689 43.2143 61.9649 43.9736 66.8311 43.0002C67.2254 42.9209 67.6176 42.8314 68.0077 42.7319C68.1496 43.2381 68.3063 43.7407 68.4779 44.2397C70.0525 48.8194 72.5143 51.7419 75.0676 51.7419C77.706 51.7419 80.3487 48.5987 81.9509 43.8265C82.0786 43.4501 82.1956 43.0586 82.3105 42.6562C82.8141 42.7831 83.3212 42.8956 83.8318 42.9937C88.5193 43.8958 92.2407 43.1884 93.5153 40.9386C94.8323 38.6131 93.4727 34.7149 90.2087 30.9226ZM58.2115 20.2707C59.0328 18.8213 62.3457 18.2545 66.6927 19.1631C66.9708 19.2208 67.2538 19.2857 67.5417 19.3578C67.1168 21.2666 66.8168 23.2019 66.6438 25.151C65.0762 26.2718 63.5815 27.4944 62.1691 28.8113C61.8585 28.4839 61.5556 28.1486 61.2606 27.8054C58.5222 24.6167 57.4413 21.6314 58.2115 20.2707ZM66.4821 32.6619C65.3969 31.8247 64.3863 30.9681 63.4692 30.1071C64.3841 29.2504 65.3948 28.3981 66.48 27.5631C66.4403 28.4125 66.4211 29.2627 66.4225 30.1136C66.4225 30.9645 66.4424 31.8139 66.4821 32.6619ZM66.4821 41.1852C64.6378 41.6028 62.7337 41.6717 60.8648 41.3885C60.3525 41.3478 59.8538 41.2007 59.3996 40.9562C58.9455 40.7117 58.5454 40.3752 58.2243 39.9673C57.4476 38.6044 58.4605 35.6883 61.1265 32.5473C61.4613 32.1535 61.8074 31.7699 62.1649 31.3964C63.5779 32.7214 65.0756 33.9499 66.6481 35.074C66.8228 37.0477 67.1256 39.0076 67.5545 40.9407C67.1999 41.0316 66.8417 41.1138 66.48 41.1874L66.4821 41.1852ZM81.5892 23.7947C80.8757 23.3375 80.1536 22.8955 79.4231 22.4686C78.7025 22.0475 77.9741 21.6415 77.2379 21.2507C78.4997 20.712 79.7402 20.2512 80.9381 19.877C81.2198 21.1709 81.4371 22.4785 81.5892 23.7947ZM70.1482 16.7727C71.5015 12.7707 73.5058 10.3262 75.0506 10.3262C76.6953 10.324 78.8316 12.961 80.2295 17.2421C80.3203 17.5219 80.4054 17.8031 80.4849 18.0858C78.6498 18.664 76.8543 19.365 75.1102 20.1842C73.3718 19.355 71.5804 18.646 69.7482 18.062C69.8716 17.6294 70.005 17.1996 70.1482 16.7727ZM69.2971 19.8532C70.5463 20.2529 71.7749 20.7165 72.9781 21.242C71.4859 22.0237 70.0333 22.8753 68.6205 23.7968C68.7907 22.4167 69.0184 21.0949 69.2971 19.8532ZM68.6226 36.4238C69.3276 36.8839 70.0433 37.3259 70.7695 37.7499C71.51 38.1826 72.2597 38.5979 73.0186 38.996C71.8067 39.5397 70.5681 40.0199 69.3078 40.4345C69.0149 39.1106 68.7863 37.7728 68.6226 36.426V36.4238ZM80.2317 43.2295C79.6656 45.0618 78.7727 46.7726 77.5975 48.2764C77.3074 48.7075 76.9333 49.0735 76.4986 49.3518C76.0638 49.6301 75.5775 49.8148 75.0697 49.8945C73.5186 49.8945 71.5419 47.5474 70.1972 43.6297C70.0383 43.1667 69.8922 42.6995 69.7588 42.2279C71.5998 41.6241 73.3983 40.8942 75.1421 40.043C76.901 40.8688 78.7114 41.5762 80.5615 42.1608C80.4593 42.5199 80.3494 42.8762 80.2317 43.2295ZM81.0019 40.3653C79.7912 39.9846 78.5337 39.5152 77.2528 38.9678C77.9748 38.5828 78.7018 38.1754 79.4338 37.7456C80.1856 37.3043 80.9175 36.8522 81.6296 36.3892C81.4874 37.7246 81.2779 39.0517 81.0019 40.3653ZM81.953 30.1049C81.953 31.4188 81.9126 32.7311 81.8317 34.0421C80.7828 34.7646 79.6763 35.4698 78.5252 36.1448C77.3762 36.8176 76.2421 37.4363 75.1272 37.9965C73.9541 37.4254 72.8037 36.8096 71.676 36.1491C70.5553 35.4929 69.4603 34.7942 68.3907 34.0529C68.2914 32.7405 68.2418 31.4267 68.2418 30.1114C68.2418 28.7976 68.29 27.4845 68.3864 26.1721C70.5254 24.6874 72.7716 23.3691 75.1059 22.2285C76.2634 22.801 77.4003 23.4147 78.5167 24.0694C79.6373 24.7242 80.7367 25.4157 81.8147 26.144C81.9069 27.4621 81.953 28.7825 81.953 30.1049ZM83.9872 19.0874C88.0767 18.2805 91.1577 18.8235 91.9301 20.1842C92.7535 21.6336 91.5747 24.8309 88.6235 28.2013C88.4604 28.3873 88.2916 28.5741 88.1171 28.7615C86.6798 27.4405 85.1556 26.2205 83.5552 25.1099C83.3941 23.1824 83.1062 21.2679 82.6935 19.3794C83.1332 19.2698 83.5644 19.1725 83.9872 19.0874ZM83.7106 27.4917C84.7905 28.2931 85.8288 29.1509 86.8213 30.0617C85.8334 30.9871 84.7986 31.8593 83.7212 32.6749C83.7538 31.8182 83.7701 30.9616 83.7701 30.1049C83.7701 29.2339 83.7503 28.3628 83.7106 27.4917ZM91.9428 40.0149C91.1683 41.3799 88.181 41.9488 84.1701 41.1787C83.7106 41.0907 83.2396 40.9855 82.7573 40.8629C83.16 38.95 83.4352 37.0116 83.5808 35.061C85.1783 33.9318 86.6976 32.6922 88.1278 31.351C88.3788 31.6149 88.6172 31.8774 88.8427 32.1384C90.1216 33.5523 91.1335 35.1934 91.8279 36.9798C92.0502 37.4508 92.1751 37.9632 92.1948 38.4852C92.2146 39.0073 92.1288 39.5279 91.9428 40.0149ZM73.1782 26.7302C72.5273 27.1123 72.0025 27.682 71.6701 28.3674C71.3377 29.0527 71.2127 29.8228 71.3108 30.5804C71.4088 31.3379 71.7257 32.0489 72.2212 32.6234C72.7167 33.1979 73.3686 33.6101 74.0946 33.808C74.8205 34.0058 75.5878 33.9803 76.2996 33.7348C77.0113 33.4893 77.6354 33.0347 78.093 32.4286C78.5506 31.8224 78.8211 31.0919 78.8704 30.3295C78.9197 29.567 78.7455 28.8068 78.3699 28.145C78.1204 27.7055 77.7882 27.3202 77.3923 27.0112C76.9963 26.7023 76.5444 26.4756 76.0623 26.3442C75.5802 26.2128 75.0773 26.1793 74.5824 26.2455C74.0876 26.3118 73.6104 26.4765 73.1782 26.7302Z" fill="white"/>
<path d="M71.7566 57.2223C72.7922 56.6459 74.1411 56.6433 75.1759 57.2223C80.3816 60.0823 85.589 62.9377 90.7938 65.7994C91.7727 66.3356 92.4276 67.3948 92.4176 68.4916V85.6981C92.4249 86.8403 91.7054 87.9249 90.6725 88.4489C85.4839 91.293 80.298 94.1407 75.1103 96.9849C74.0532 97.5725 72.6772 97.5273 71.6532 96.8915C70.0976 96.0147 68.5394 95.1423 66.9837 94.2664C66.6658 94.0821 66.3075 93.9355 66.083 93.6358C66.2815 93.3757 66.6362 93.3433 66.9245 93.2298C67.5739 93.0291 68.1702 92.7068 68.7667 92.3941C68.9176 92.2938 69.1017 92.3322 69.2463 92.422C70.5765 93.1636 71.8949 93.9267 73.2296 94.6611C73.5143 94.8209 73.8026 94.6087 74.0459 94.4768C79.1376 91.6789 84.2354 88.8916 89.3262 86.0928C89.5148 86.0046 89.6191 85.8099 89.6037 85.609C89.6073 79.933 89.6046 74.2559 89.6055 68.5798C89.6271 68.3519 89.4914 68.1423 89.2794 68.049C84.1088 65.2178 78.9409 62.3823 73.7712 59.5504C73.6816 59.4906 73.5755 59.4585 73.4668 59.4583C73.3581 59.4581 73.2519 59.49 73.1622 59.5496C67.9925 62.3823 62.8254 65.2204 57.6557 68.0515C57.4445 68.1449 57.3027 68.351 57.3278 68.5798C57.3287 74.2559 57.3278 79.933 57.3278 85.6099C57.3189 85.7079 57.341 85.8063 57.3913 85.8917C57.4415 85.9771 57.5175 86.0455 57.609 86.0876C58.9885 86.8482 60.3699 87.6035 61.7504 88.3615C62.5281 88.7685 63.4829 89.0103 64.3397 88.6985C65.0959 88.4348 65.6259 87.6846 65.6115 86.9041C65.6186 81.2611 65.6079 75.6173 65.6168 69.9752C65.5979 69.7247 65.8423 69.5177 66.0928 69.5413C66.7557 69.537 67.4194 69.5326 68.0823 69.543C68.359 69.537 68.5494 69.8067 68.5152 70.0591C68.5125 75.7378 68.5223 81.4166 68.5107 87.0953C68.5125 88.6087 67.873 90.2555 66.4332 90.996C64.6594 91.8894 62.4671 91.6999 60.7147 90.8432C59.1977 90.1071 57.75 89.2383 56.2599 88.4496C55.2244 87.9285 54.5085 86.8396 54.5158 85.6983V68.4916C54.5049 67.3721 55.1858 66.2936 56.1952 65.7653C61.3829 62.9188 66.5698 60.0701 71.7566 57.2223Z" fill="white"/>
<path d="M76.0128 70.3742C77.9147 70.2579 79.9509 70.3053 81.6624 71.1952C82.9875 71.8771 83.7221 73.3084 83.7455 74.7066C83.7085 74.8952 83.5009 74.9992 83.3114 74.9863C82.7595 74.9855 82.2076 74.9934 81.6557 74.9827C81.4217 74.9913 81.2856 74.7863 81.2562 74.5897C81.0977 73.9207 80.7135 73.2581 80.0505 72.9354C79.0328 72.4515 77.8527 72.4758 76.7429 72.4859C75.9328 72.5268 75.0616 72.5934 74.3752 73.0459C73.8482 73.3886 73.6882 74.0806 73.8762 74.6378C74.0536 75.0379 74.5399 75.167 74.9378 75.286C77.2299 75.8554 79.6588 75.7987 81.9071 76.548C82.8379 76.8535 83.7485 77.4473 84.0671 78.3729C84.4839 79.6135 84.3012 81.0964 83.3719 82.0924C82.6182 82.912 81.5206 83.3581 80.4258 83.6003C78.9694 83.9088 77.4579 83.9166 75.9789 83.7797C74.5881 83.6291 73.1408 83.2821 72.0672 82.3821C71.1491 81.6249 70.7007 80.4453 70.7452 79.3067C70.7558 79.1144 70.9574 78.9803 71.1514 78.9961C71.7071 78.9918 72.2628 78.9904 72.8185 78.9968C73.0404 78.9817 73.205 79.1639 73.2164 79.3626C73.3189 80 73.5711 80.669 74.1563 81.0469C75.2858 81.7389 76.7029 81.6916 77.9961 81.7109C79.0675 81.6658 80.2702 81.6521 81.1446 80.9796C81.6059 80.596 81.7425 79.9542 81.6179 79.402C81.4828 78.9359 80.9694 78.7187 80.5285 78.5766C78.2657 77.8968 75.8097 78.1435 73.5689 77.3747C72.6592 77.0694 71.7795 76.4921 71.43 75.6044C70.9423 74.3481 71.1657 72.7942 72.1925 71.8319C73.1936 70.8747 74.6388 70.5061 76.0128 70.3742Z" fill="white"/>
<path d="M32.1933 58.1217C30.3082 56.1362 28.6533 54.1367 28.3323 53.6942L28.2695 53.6981C28.0034 54.1553 26.6045 56.3617 24.9742 58.5612C11.0792 78.7084 29.3203 90.6192 29.3203 90.6192L29.4732 90.7149C29.7197 92.6952 30.2303 95.5624 30.2303 95.5624L31.5277 95.4834C31.5277 95.4834 31.667 92.5976 31.6703 90.5812L31.8091 90.4467C31.8091 90.4467 48.4299 76.4343 32.1933 58.1217ZM30.4952 90.2537C30.1101 89.9747 29.7533 89.6588 29.4297 89.3104L29.1601 68.3245L31.3757 89.192C31.1155 89.5722 30.8207 89.9276 30.4952 90.2537Z" fill="white"/>
</g>
<defs>
<clipPath id="clip0_844_2489">
<rect x="0.164062" y="0.925781" width="104" height="104" rx="22.6406" fill="white"/>
</clipPath>
</defs>
</svg>
