<svg width="79" height="78" viewBox="0 0 79 78" fill="none" xmlns="http://www.w3.org/2000/svg">
<g clip-path="url(#clip0_844_1999)">
<path fill-rule="evenodd" clip-rule="evenodd" d="M17.7673 3.21955L50.6945 3.20284V16.0338L17.7673 16.0506C16.2801 16.0522 14.8314 15.5778 13.6333 14.6967L8.29589 10.7577C8.12077 10.6282 7.97846 10.4594 7.88041 10.2649C7.78235 10.0704 7.73126 9.85565 7.73126 9.63784C7.73126 9.42003 7.78235 9.20525 7.88041 9.01076C7.97846 8.81628 8.12077 8.6475 8.29589 8.51798L13.6389 4.57341C14.8332 3.69257 16.2777 3.21628 17.7617 3.21398L17.7673 3.21955ZM64.2497 16.0227L57.6587 16.0283V3.19727H64.272C67.8043 3.25298 70.5065 6.38969 70.5065 9.60441C70.5065 12.8247 67.8043 15.967 64.272 16.0227H64.2497ZM31.2056 28.8927C33.072 29.6393 34.6599 30.4583 36.036 31.2717V78.0048C33.9119 76.411 31.5896 75.1 29.1275 74.1048C25.0325 72.4668 19.1267 71.113 10.1177 71.113C9.37893 71.113 8.67037 70.8195 8.14795 70.2971C7.62553 69.7746 7.33203 69.0661 7.33203 68.3273V28.2798C7.33203 27.541 7.62553 26.8325 8.14795 26.31C8.67037 25.7876 9.37893 25.4941 10.1177 25.4941C19.7006 25.4941 26.3306 26.9371 31.2056 28.8927ZM49.9033 74.1048C46.8947 75.3138 44.7832 76.7011 42.9947 77.9993V31.2717C44.3709 30.4583 45.9643 29.6393 47.8307 28.8927C52.7057 26.9371 59.3358 25.4941 68.9186 25.4941C69.6574 25.4941 70.366 25.7876 70.8884 26.31C71.4108 26.8325 71.7043 27.541 71.7043 28.2798V68.3273C71.7043 69.0661 71.4108 69.7746 70.8884 70.2971C70.366 70.8195 69.6574 71.113 68.9186 71.113C59.9096 71.113 54.0039 72.4613 49.9033 74.1048Z" fill="#B15FAD"/>
</g>
<defs>
<clipPath id="clip0_844_1999">
<rect width="78" height="78" fill="white" transform="translate(0.5)"/>
</clipPath>
</defs>
</svg>
