<svg width="713" height="468" viewBox="0 0 713 468" fill="none" xmlns="http://www.w3.org/2000/svg">
<path d="M107.727 302.102C96.2164 302.706 94.5995 309.69 94.4307 312.662V286.925C100.145 288.792 107.857 281.559 106.915 274.724C98.9239 275.143 95.7139 278.643 94.4307 281.74V272.776C99.5595 269.709 99.2894 259.215 93.5944 255.375C86.1793 264.588 90.7201 270.537 92.7581 272.495V292.971C90.4619 289.463 86.0999 286.742 81.8828 287.324C82.5105 299.238 89.9891 300.559 92.7581 300.636V323.17C90.4619 319.662 86.0999 316.941 81.8828 317.523C82.5105 329.437 89.9891 330.758 92.7581 330.835V331.308H94.4307V313.893C94.4347 313.949 94.4406 313.997 94.4406 313.997C100.203 316.883 108.715 309.261 107.727 302.102Z" fill="#E78FF6" fill-opacity="0.33"/>
<path d="M31.3544 226.486C27.8048 230.463 28.0312 236.494 28.1226 241.575C28.2358 247.929 27.4512 254.284 21.5318 257.77C15.9104 261.079 11.2782 264.577 10.9703 271.722C10.7617 276.557 14.4782 280.863 13.92 285.672C13.3936 290.201 8.80313 291.286 5.73419 293.727C0.44846 297.93 -0.50299 306.875 0.206144 313.106C0.567663 316.276 1.5906 319.609 4.11329 321.564C10.4538 326.472 19.6845 320.887 26.2455 325.467C28.1564 326.802 29.7097 328.574 31.4319 330.143C35.1007 333.486 38.8212 334.235 43.5626 334.851C50.06 335.693 56.8693 337.135 63.2456 334.863C68.6107 332.952 71.5546 326.856 72.7921 321.592C74.4964 314.345 75.3187 304.535 70.5256 298.276C67.8838 294.823 64.2209 291.433 64.8803 286.663C65.4028 282.891 68.2174 279.906 69.9376 276.507C72.4206 271.599 72.6669 265.246 70.0906 260.314C67.5679 255.483 62.4828 253.268 57.9539 250.75C50.6738 246.7 48.6457 240.762 48.3816 232.761C48.1134 224.629 39.2621 219.943 32.584 225.322C32.1291 225.688 31.7219 226.075 31.3544 226.486Z" fill="#E78FF6" fill-opacity="0.33"/>
<path d="M41.3125 258.664V378.291" stroke="#E78FF6" stroke-width="1.0279" stroke-miterlimit="10" stroke-linecap="round" stroke-linejoin="round"/>
<path d="M41.3125 281.503L57.6762 266.844" stroke="#E78FF6" stroke-width="1.0279" stroke-miterlimit="10" stroke-linecap="round" stroke-linejoin="round"/>
<path d="M41.3176 296.338L22.2266 281.508" stroke="#E78FF6" stroke-width="1.0279" stroke-miterlimit="10" stroke-linecap="round" stroke-linejoin="round"/>
<path d="M41.3125 319.006L62.9619 302.301" stroke="#E78FF6" stroke-width="1.0279" stroke-miterlimit="10" stroke-linecap="round" stroke-linejoin="round"/>
<path d="M652.671 351.925C636.244 351.925 620.844 344.629 610.421 331.908C609.879 331.247 609.976 330.268 610.638 329.725C611.299 329.181 612.274 329.278 612.821 329.942C622.651 341.94 637.175 348.822 652.669 348.822C681.06 348.822 704.158 325.723 704.158 297.334C704.158 281.896 697.319 267.405 685.393 257.578C676.212 250.01 664.589 245.845 652.669 245.845C651.813 245.845 651.118 245.15 651.118 244.294C651.118 243.437 651.813 242.742 652.669 242.742C665.308 242.742 677.63 247.162 687.367 255.185C700.01 265.605 707.263 280.968 707.263 297.336C707.265 327.433 682.775 351.925 652.671 351.925Z" fill="#BC6ABC"/>
<path d="M698.333 297.529C698.333 304.263 696.875 310.671 694.237 316.411C692.95 319.236 691.396 321.904 689.583 324.371C687.271 327.521 684.571 330.36 681.546 332.811C679.514 334.471 677.341 335.945 675.045 337.217C673.261 338.24 671.398 339.125 669.459 339.868C665.146 341.575 660.49 342.616 655.636 342.909C654.72 342.971 653.79 343.003 652.859 343.003C641.997 343.003 632.038 339.201 624.217 332.856C613.946 324.526 607.383 311.787 607.383 297.529C607.383 291.028 608.747 284.87 611.199 279.284C616.923 266.22 628.607 256.369 642.802 253.173C644.246 252.832 645.72 252.583 647.223 252.397C649.071 252.164 650.948 252.039 652.855 252.039C670.154 252.039 685.203 261.705 692.884 275.947C693.412 276.908 693.893 277.886 694.326 278.895C696.904 284.574 698.333 290.873 698.333 297.529Z" fill="#EDABDE"/>
<g opacity="0.5">
<path d="M664.326 337.803C664.652 340.083 661.875 341.434 659.641 341.977C658.322 342.302 656.987 342.628 655.654 342.908C654.738 342.97 653.807 343.001 652.877 343.001C642.016 343.001 632.056 339.2 624.236 332.855C624.158 332.468 624.126 332.065 624.11 331.661C624.079 329.907 624.684 328.233 625.088 326.527C625.429 325.098 625.63 323.64 625.694 322.182C625.725 321.654 625.709 321.064 625.368 320.647C625.058 320.305 624.591 320.166 624.158 319.979C621.739 318.893 619.746 315.671 620.745 313.214C622.954 307.775 630.723 309.555 625.604 296.006C624.506 293.096 626.826 292.351 626.639 291.545C626.204 289.745 619.474 290.236 617.643 289.942C616.433 289.755 615.114 289.632 614.214 288.809C613.656 288.313 613.314 287.616 613.034 286.932C612.025 284.497 611.421 281.905 611.219 279.283C616.943 266.218 628.627 256.368 642.822 253.172L642.961 254.646C642.496 259.812 642.17 264.979 641.984 270.145C641.952 271.061 641.922 271.991 641.58 272.845C640.804 274.692 638.587 275.654 636.601 275.405C635.872 275.312 635.065 275.095 634.428 275.467C633.389 276.073 633.637 277.608 633.482 278.802C633.188 280.866 631.357 282.292 630.099 283.953C628.842 285.613 628.345 288.452 630.177 289.461C630.641 289.709 631.231 289.832 631.496 290.283C631.853 290.903 631.37 291.68 630.767 292.083C630.177 292.47 629.448 292.689 628.997 293.231C628.097 294.302 628.748 296.008 629.773 296.955C630.783 297.903 632.131 298.507 633.017 299.577C634.134 300.942 634.382 302.899 635.607 304.154C638.587 307.227 644.715 304.015 647.74 307.056C649.307 308.607 649.308 311.214 650.688 312.92C651.556 314.022 652.891 314.626 654.039 315.433C656.645 317.28 658.351 320.351 658.522 323.547C658.725 326.96 657.452 330.964 659.795 333.445C661.285 335.01 664.017 335.662 664.326 337.803Z" fill="#C480C4"/>
</g>
<g opacity="0.5">
<path d="M692.89 275.953C692.113 275.985 691.322 276.014 690.609 276.14C690.315 276.185 690.019 276.279 689.819 276.497C689.509 276.839 689.57 277.351 689.602 277.816C689.664 279.306 689.028 280.81 687.896 281.803C687.679 281.989 687.415 282.174 687.119 282.222C686.265 282.377 685.691 281.384 685.381 280.561C684.543 278.388 683.72 276.201 682.898 274.014C682.634 273.347 682.356 272.65 681.796 272.215C680.787 271.438 679.251 271.78 678.18 271.098C676.877 270.276 676.226 268.041 674.736 268.415C673.526 268.709 673.51 270.433 673.898 271.611C674.301 272.791 674.752 274.31 673.804 275.117C672.795 275.971 671.228 275.117 670.453 274.046C669.663 272.975 669.073 271.611 667.832 271.144C666.064 270.476 664.248 272.089 663.271 273.718C662.294 275.331 661.423 277.288 659.64 277.923C658.772 278.233 657.778 278.172 656.972 278.623C655.295 279.554 655.359 281.989 655.949 283.821C656.523 285.652 657.377 287.669 656.523 289.391C656.368 289.732 656.12 290.042 655.778 290.181C655.017 290.461 654.288 289.762 653.792 289.142C651.061 285.636 648.671 281.866 646.655 277.894C646.267 277.117 645.878 276.281 645.987 275.411C646.049 274.868 646.329 274.356 646.5 273.827C647.106 272.012 646.561 270.026 646.794 268.133C647.197 264.921 649.819 261.895 648.796 258.824C648.423 257.692 647.586 256.761 647.058 255.69C646.53 254.635 646.375 253.207 647.229 252.401C649.076 252.168 650.953 252.043 652.86 252.043C670.159 252.043 685.21 261.709 692.89 275.953Z" fill="#C480C4"/>
</g>
<g opacity="0.5">
<path d="M698.343 297.533C698.343 304.267 696.885 310.675 694.248 316.415C692.96 319.24 691.407 321.908 689.593 324.375C689.578 324.375 689.578 324.359 689.578 324.359C689.454 324.079 689.454 323.769 689.454 323.459C689.486 322.357 689.564 321.208 690.06 320.231C690.386 319.625 690.851 319.099 691.192 318.493C692.031 316.958 691.876 315.081 691.705 313.327C691.612 312.395 691.489 311.372 690.821 310.689C690.402 310.27 689.828 310.021 689.409 309.602C688.432 308.563 688.725 306.932 688.958 305.522C689.19 304.126 689.035 302.326 687.732 301.798C686.133 304.016 684.35 306.08 682.395 307.957C682.643 306.438 680.844 305.119 679.37 305.552C677.896 305.987 677.042 307.677 677.228 309.213C675.909 309.245 675.615 307.367 675.8 306.062C676.11 303.844 676.42 301.625 676.716 299.406C675.274 298.786 674.217 301.083 672.682 301.422C671.394 301.702 670.183 300.413 670.044 299.094C669.905 297.775 670.508 296.504 671.083 295.324C671.766 293.928 672.447 292.547 673.13 291.151C674.014 289.335 675.008 287.412 676.807 286.513C678.98 285.426 681.571 286.171 683.928 286.761C686.302 287.335 689.127 287.615 690.833 285.877C691.842 284.868 692.214 283.394 692.494 281.982C692.742 280.772 693.099 279.375 694.232 278.879L694.341 278.895C696.915 284.578 698.343 290.877 698.343 297.533Z" fill="#C480C4"/>
</g>
<path d="M650.608 364.34H655.117V350.376H650.608V364.34Z" fill="#BC6ABC"/>
<path d="M639.56 372.097H666.145C667.659 372.097 668.884 370.871 668.884 369.357V367.079C668.884 365.565 667.659 364.34 666.145 364.34H639.56C638.046 364.34 636.82 365.565 636.82 367.079V369.357C636.82 370.871 638.048 372.097 639.56 372.097Z" fill="#BC6ABC"/>
<path d="M122.837 218.091L149.174 286.788C149.629 287.974 149.035 289.304 147.849 289.759L138.47 293.355C137.284 293.81 135.953 293.216 135.498 292.03L109.161 223.333C108.706 222.147 109.3 220.816 110.486 220.362L119.863 216.766C121.051 216.311 122.382 216.905 122.837 218.091Z" fill="#FEB80C"/>
<path d="M109.722 224.748L112.03 223.862C112.149 223.816 112.231 223.671 112.177 223.532C112.123 223.393 111.959 223.319 111.839 223.365L109.531 224.251L109.722 224.748Z" fill="white"/>
<path d="M112.119 227.273C112.143 227.333 112.117 227.389 112.058 227.411L110.904 227.854L110.828 227.655L111.982 227.212C112.042 227.188 112.095 227.214 112.119 227.273Z" fill="white"/>
<path d="M114.627 233.777C114.649 233.837 114.625 233.893 114.565 233.914L113.411 234.357L113.336 234.159L114.49 233.716C114.55 233.692 114.605 233.718 114.627 233.777Z" fill="white"/>
<path d="M117.121 240.292C117.145 240.352 117.119 240.407 117.06 240.429L115.906 240.872L115.828 240.674L116.982 240.231C117.044 240.209 117.099 240.233 117.121 240.292Z" fill="white"/>
<path d="M119.627 246.8C119.643 246.84 119.625 246.915 119.565 246.937L118.411 247.38L118.336 247.181L119.49 246.738C119.548 246.717 119.603 246.74 119.627 246.8Z" fill="white"/>
<path d="M122.104 253.308C122.12 253.348 122.102 253.423 122.042 253.445L120.888 253.888L120.812 253.689L121.967 253.246C122.024 253.224 122.08 253.248 122.104 253.308Z" fill="white"/>
<path d="M124.598 259.794C124.622 259.854 124.596 259.909 124.536 259.931L123.382 260.374L123.305 260.175L124.459 259.732C124.52 259.711 124.582 259.754 124.598 259.794Z" fill="white"/>
<path d="M127.088 266.306C127.112 266.366 127.086 266.422 127.026 266.443L125.872 266.886L125.797 266.688L126.951 266.245C127.011 266.221 127.074 266.267 127.088 266.306Z" fill="white"/>
<path d="M129.58 272.82C129.604 272.88 129.578 272.936 129.519 272.957L128.365 273.4L128.289 273.202L129.443 272.759C129.501 272.735 129.556 272.761 129.58 272.82Z" fill="white"/>
<path d="M132.08 279.324C132.104 279.384 132.078 279.44 132.019 279.461L130.865 279.904L130.789 279.706L131.943 279.263C132.003 279.239 132.056 279.265 132.08 279.324Z" fill="white"/>
<path d="M134.58 285.827C134.604 285.887 134.578 285.943 134.519 285.964L133.365 286.407L133.289 286.209L134.443 285.766C134.503 285.744 134.558 285.768 134.58 285.827Z" fill="white"/>
<path d="M112.214 231.255L114.522 230.37C114.641 230.324 114.715 230.159 114.669 230.04C114.616 229.901 114.451 229.827 114.332 229.873L112.023 230.759L112.214 231.255Z" fill="white"/>
<path d="M117.161 236.531C117.215 236.67 117.142 236.835 117.022 236.881L114.714 237.767L114.523 237.268L116.832 236.382C116.949 236.338 117.108 236.392 117.161 236.531Z" fill="white"/>
<path d="M119.648 243.034C119.701 243.173 119.628 243.338 119.509 243.384L117.199 244.27L117.008 243.773L119.318 242.887C119.437 242.841 119.594 242.895 119.648 243.034Z" fill="white"/>
<path d="M122.148 249.547C122.201 249.686 122.128 249.851 122.009 249.896L119.699 250.782L119.508 250.284L121.818 249.398C121.937 249.354 122.094 249.408 122.148 249.547Z" fill="white"/>
<path d="M124.64 256.055C124.694 256.194 124.612 256.339 124.493 256.385L122.183 257.271L121.992 256.774L124.302 255.889C124.422 255.843 124.588 255.916 124.64 256.055Z" fill="white"/>
<path d="M127.132 262.568C127.186 262.707 127.104 262.852 126.985 262.898L124.675 263.784L124.484 263.287L126.795 262.401C126.914 262.354 127.079 262.427 127.132 262.568Z" fill="white"/>
<path d="M129.63 269.072C129.684 269.211 129.602 269.356 129.483 269.402L127.175 270.287L126.984 269.791L129.295 268.905C129.412 268.857 129.577 268.933 129.63 269.072Z" fill="white"/>
<path d="M129.667 276.798L131.975 275.912C132.095 275.867 132.168 275.702 132.122 275.583C132.069 275.444 131.904 275.37 131.785 275.416L129.477 276.302L129.667 276.798Z" fill="white"/>
<path d="M132.175 283.313L134.483 282.427C134.602 282.381 134.676 282.216 134.622 282.077C134.569 281.938 134.412 281.884 134.293 281.93L131.984 282.816L132.175 283.313Z" fill="white"/>
<path d="M134.675 289.816L136.983 288.93C137.102 288.885 137.176 288.72 137.122 288.581C137.069 288.442 136.912 288.388 136.793 288.434L134.484 289.32L134.675 289.816Z" fill="white"/>
<path d="M153.483 231.055H146.555V309.576H153.483V231.055Z" fill="#2D24A0"/>
<path d="M153.468 231.046H146.539L149.652 224.906L150.013 224.203L150.377 224.906L153.468 231.046Z" fill="#FFDBB3"/>
<path d="M150.381 224.906H149.656L150.018 224.203L150.381 224.906Z" fill="#545454"/>
<path d="M140.769 242.643L133.906 243.594L144.679 321.369L151.542 320.418L140.769 242.643Z" fill="#1165C1"/>
<path d="M140.785 242.676L133.922 243.625L136.162 237.118L136.425 236.371L136.882 237.019L140.785 242.676Z" fill="#FFDBB3"/>
<path d="M136.875 237.019L136.156 237.118L136.418 236.371L136.875 237.019Z" fill="#545454"/>
<path d="M171.459 248.174L157.199 248.156C156.428 248.154 155.803 247.528 155.805 246.757L155.809 243.621C155.809 242.85 156.436 242.225 157.207 242.227L171.469 242.244C172.24 242.246 172.866 242.872 172.864 243.643L172.86 246.779C172.856 247.55 172.23 248.176 171.459 248.174Z" fill="#4D70FF"/>
<path d="M168.229 238.578C166.03 238.576 165.567 236.697 165.567 236.697H165.279L163.501 236.695H163.213C163.213 236.695 162.745 238.57 160.546 238.568C155.415 238.829 155.911 243.195 155.911 243.195L163.494 243.205L165.271 243.207L172.853 243.217C172.853 243.217 173.358 238.851 168.229 238.578Z" fill="#2D24A0"/>
<path d="M168.679 295.075L159.848 295.063C157.578 295.061 155.738 293.218 155.742 290.948L155.802 243.199L172.857 243.221L172.797 290.969C172.793 293.24 170.95 295.079 168.679 295.075Z" fill="#FEB80C"/>
<path d="M163.229 234.536L163.227 236.715L165.578 236.718L165.581 234.539L163.229 234.536Z" fill="#FEB80C"/>
<path d="M164.551 288.672H163.969C161.774 288.67 159.998 286.888 160 284.693L160.044 250.27C160.046 248.075 161.827 246.299 164.022 246.301H164.604C166.799 246.303 168.575 248.085 168.571 250.278L168.527 284.701C168.526 286.898 166.744 288.676 164.551 288.672Z" fill="#FC8510"/>
<path d="M168.589 250.095L168.531 284.884C168.531 286.986 166.847 288.67 164.745 288.67H164.102C166.183 288.67 167.888 286.986 167.888 284.884L167.925 250.095C167.925 247.993 166.241 246.309 164.159 246.309H164.803C166.887 246.309 168.589 247.993 168.589 250.095Z" fill="#FC8510"/>
<path d="M169.885 331.308H131.848C129.341 331.308 127.266 329.36 127.107 326.859L123.18 264.801H178.552L174.625 326.859C174.468 329.36 172.392 331.308 169.885 331.308Z" fill="#E78FF6"/>
<path d="M229.011 333.711H59.2344V369.674H229.011V333.711Z" fill="#E8F1F8"/>
<path d="M232.24 366.805H55.8984V372.543H232.24V366.805Z" fill="#EF9F00"/>
<path d="M64.8203 343.508H223.424" stroke="#CDCDD3" stroke-width="1.5759" stroke-miterlimit="10"/>
<path d="M64.8203 351.688H223.424" stroke="#CDCDD3" stroke-width="1.5759" stroke-miterlimit="10"/>
<path d="M64.8203 359.871H223.424" stroke="#CDCDD3" stroke-width="1.5759" stroke-miterlimit="10"/>
<path d="M232.256 330.73H55.9141V336.463H232.256V330.73Z" fill="#EF9F00"/>
<path d="M78.5437 336.461V351.027L73.8539 346.929L69.1641 351.027V336.461H78.5437Z" fill="#C62C2C"/>
<path d="M191.902 375.531H22.125V411.495H191.902V375.531Z" fill="#E8F1F8"/>
<path d="M195.123 372.535H18.8047V378.292H195.123V372.535Z" fill="#2D24A0"/>
<path d="M195.131 408.625H18.7891V414.364H195.131V408.625Z" fill="#2D24A0"/>
<path d="M27.7109 385.328H186.315" stroke="#CDCDD3" stroke-width="1.5759" stroke-miterlimit="10"/>
<path d="M27.7109 393.508H186.315" stroke="#CDCDD3" stroke-width="1.5759" stroke-miterlimit="10"/>
<path d="M27.7109 401.691H186.315" stroke="#CDCDD3" stroke-width="1.5759" stroke-miterlimit="10"/>
<path d="M41.4421 378.293V392.859L36.7523 388.737L32.0625 392.859V378.293H41.4421Z" fill="#EF9F00"/>
<path d="M709.48 375.531H539.703V411.495H709.48V375.531Z" fill="#E8F1F8"/>
<path d="M712.709 372.535H536.367V378.292H712.709V372.535Z" fill="#2D24A0"/>
<path d="M712.709 408.625H536.367V414.364H712.709V408.625Z" fill="#2D24A0"/>
<path d="M545.289 385.328H703.891" stroke="#CDCDD3" stroke-width="1.5759" stroke-miterlimit="10"/>
<path d="M545.289 393.508H703.891" stroke="#CDCDD3" stroke-width="1.5759" stroke-miterlimit="10"/>
<path d="M545.289 401.691H703.891" stroke="#CDCDD3" stroke-width="1.5759" stroke-miterlimit="10"/>
<path d="M699.153 378.293V392.859L694.463 388.737L689.773 392.859V378.293H699.153Z" fill="#FEB80C"/>
<path d="M596.918 115.264V392.557H168.984V115.264C168.984 101.147 180.424 89.707 194.541 89.707H571.361C585.478 89.707 596.918 101.149 596.918 115.264Z" fill="#800080"/>
<path d="M196.648 347.524V134.732C196.648 125.132 204.431 117.352 214.029 117.352H551.917C561.515 117.352 569.297 125.132 569.297 134.732V347.524C569.297 357.122 561.517 364.905 551.917 364.905H214.029C204.429 364.905 196.648 357.122 196.648 347.524Z" fill="#F2DFE8"/>
<path d="M569.283 140.693V341.573C569.283 354.459 558.825 364.915 545.941 364.915H543.727C556.612 364.915 567.068 354.457 567.068 341.573V140.693C567.068 127.808 556.61 117.352 543.727 117.352H545.941C558.827 117.352 569.283 127.808 569.283 140.693Z" fill="#E8F1F8"/>
<path d="M219.979 364.905L217.764 364.917C204.852 364.917 194.422 354.459 194.422 341.575V140.695C194.422 127.81 204.852 117.354 217.764 117.354L219.979 117.352C207.093 117.352 196.635 127.81 196.635 140.695V341.575C196.635 354.459 207.093 364.905 219.979 364.905Z" fill="#1165C1"/>
<path d="M613.573 382.359V392.923C613.573 405.087 603.703 414.932 591.564 414.932H174.361C162.222 414.932 152.352 405.087 152.352 392.923V382.359H613.573Z" fill="#530153"/>
<path d="M438.647 382.359C438.647 386.839 435.016 390.47 430.536 390.47H335.407C330.928 390.47 327.297 386.839 327.297 382.359H438.647Z" fill="#F2DFE8"/>
<path d="M509.159 322.061V322.076C509.159 325.249 506.508 327.821 503.238 327.829L346.047 328.141L257.588 328.32C254.31 328.328 251.642 325.755 251.634 322.575L251.305 164.708C251.297 161.536 253.949 158.948 257.226 158.94L502.876 158.449C506.154 158.441 508.822 161.014 508.83 164.194L508.846 170.344L509.159 322.061Z" fill="#E8F1F8"/>
<path d="M502.481 154.617L257.875 155.122C254.308 155.13 251.422 158.028 251.43 161.595L251.442 167.213L508.967 166.68L508.955 161.063C508.947 157.495 506.049 154.609 502.481 154.617Z" fill="#E8F1F8"/>
<path d="M511.956 319.084V319.1C511.956 322.272 509.304 324.844 506.035 324.852L348.844 325.164L260.385 325.343C257.107 325.351 254.439 322.779 254.431 319.598L254.102 161.732C254.094 158.559 256.745 155.971 260.023 155.963L505.673 155.473C508.953 155.465 511.619 158.037 511.629 161.217L511.644 167.367L511.956 319.084Z" fill="white"/>
<path d="M505.278 151.641L260.672 152.145C257.105 152.153 254.219 155.051 254.227 158.619L254.238 164.236L511.763 163.706L511.751 158.088C511.744 154.521 508.845 151.635 505.278 151.641Z" fill="#800080"/>
<path d="M268.367 158.062C268.369 159.212 267.439 160.146 266.289 160.148C265.139 160.15 264.205 159.22 264.203 158.07C264.201 156.92 265.131 155.986 266.281 155.984C267.431 155.984 268.365 156.914 268.367 158.062Z" fill="#F43434"/>
<path d="M277.179 158.05C277.181 159.2 276.251 160.134 275.101 160.136C273.951 160.138 273.018 159.208 273.016 158.058C273.014 156.91 273.943 155.977 275.093 155.973C276.244 155.971 277.177 156.9 277.179 158.05Z" fill="#FFC950"/>
<path d="M285.976 158.027C285.978 159.177 285.048 160.111 283.898 160.113C282.748 160.115 281.814 159.185 281.813 158.035C281.811 156.885 282.74 155.951 283.89 155.949C285.04 155.947 285.974 156.877 285.976 158.027Z" fill="#42FCEA"/>
<path d="M481.05 311.758H275.102V316.493H481.05V311.758Z" fill="#D6F2FE"/>
<path d="M384.215 311.758H275.102V316.493H384.215V311.758Z" fill="#BACEDB"/>
<path d="M387.06 314.193C387.06 315.989 385.739 317.445 384.108 317.445C382.477 317.445 381.156 315.989 381.156 314.193C381.156 312.397 382.477 310.941 384.108 310.941C385.739 310.941 387.06 312.397 387.06 314.193Z" fill="#C62C2C"/>
<path d="M401.316 179.98H275.102V241.959H401.316V179.98Z" fill="#E8F1F8"/>
<g filter="url(#filter0_d_844_2606)">
<path d="M385 191H294C290.686 191 288 193.686 288 197V222C288 225.314 290.686 228 294 228H385C388.314 228 391 225.314 391 222V197C391 193.686 388.314 191 385 191Z" fill="#800080"/>
</g>
<path d="M477 180H405V298H477V180Z" fill="#E8F1F8"/>
<path d="M401 248H275V298H401V248Z" fill="#E8F1F8"/>
<path opacity="0.6" d="M608.78 54.7662H436.605C433.195 54.7662 430.43 52.0012 430.43 48.5906V6.17564C430.43 2.76504 433.195 0 436.605 0H608.778C612.189 0 614.954 2.76504 614.954 6.17564V48.5906C614.956 52.0012 612.19 54.7662 608.78 54.7662Z" fill="#F7D2F5"/>
<path opacity="0.29" d="M597.879 69.3501H425.707C422.296 69.3501 419.531 66.5851 419.531 63.1745V20.7615C419.531 17.351 422.296 14.5859 425.707 14.5859H597.879C601.29 14.5859 604.055 17.351 604.055 20.7615V63.1745C604.055 66.5851 601.29 69.3501 597.879 69.3501Z" fill="#B167FE"/>
<path d="M558.785 74.482H391.91C388.499 74.482 385.734 71.717 385.734 68.3064V38.5545C385.734 35.1439 388.499 32.3789 391.91 32.3789H558.785C562.196 32.3789 564.961 35.1439 564.961 38.5545V68.3064C564.961 71.717 562.196 74.482 558.785 74.482Z" fill="#800080"/>
<path d="M543.673 60.6036H407.038C403.073 60.6036 399.859 57.3896 399.859 53.4248C399.859 49.46 403.073 46.2461 407.038 46.2461H543.673C547.637 46.2461 550.851 49.46 550.851 53.4248C550.851 57.3896 547.637 60.6036 543.673 60.6036Z" fill="white"/>
<path d="M534.921 69.3535C543.718 69.3535 550.85 62.222 550.85 53.4248C550.85 44.6276 543.718 37.4961 534.921 37.4961C526.124 37.4961 518.992 44.6276 518.992 53.4248C518.992 62.222 526.124 69.3535 534.921 69.3535Z" fill="white"/>
<path d="M408.258 50.1289V56.7753" stroke="#A8A8A8" stroke-width="0.7555" stroke-miterlimit="10"/>
<path d="M539.114 52.6275C539.114 55.4839 536.798 57.7981 533.944 57.7981C531.087 57.7981 528.773 55.4839 528.773 52.6275C528.773 49.7711 531.089 47.457 533.944 47.457C536.798 47.457 539.114 49.7731 539.114 52.6275Z" stroke="#3B2F7C" stroke-width="0.7555" stroke-miterlimit="10"/>
<path d="M541.08 59.3852L537.562 56.3242" stroke="#3B2F7C" stroke-width="0.7555" stroke-miterlimit="10" stroke-linecap="round" stroke-linejoin="round"/>
<path opacity="0.4" d="M371.103 74.482H292.965C289.554 74.482 286.789 71.717 286.789 68.3064V38.5545C286.789 35.1439 289.554 32.3789 292.965 32.3789H371.103C374.513 32.3789 377.278 35.1439 377.278 38.5545V68.3064C377.276 71.717 374.513 74.482 371.103 74.482Z" fill="#800080"/>
<path d="M311.096 57.3708L313.016 56.1953L312.248 54.9418L310.329 56.1172L311.096 57.3708Z" fill="white"/>
<path d="M300.597 43.3278L305.258 40.4727L304.634 39.4547L299.973 42.3098L300.597 43.3278Z" fill="white"/>
<path d="M307.005 64.8123L306.613 64.1349L310.668 60.7958H315.594V59.173H306.591V60.7958H308.965L306.063 63.1854L299.84 52.4074L305.223 49.2987L308.884 55.2757C309.128 55.677 309.652 55.8021 310.052 55.5558L311.776 54.501C312.175 54.2567 312.302 53.7323 312.056 53.3331L304.943 41.7188L301.771 43.6614L303.668 46.7582L296.344 50.9872C296.344 50.9872 296.111 51.1162 295.992 51.1858C294.691 51.9366 294.244 53.6012 294.995 54.9043L300.716 64.8123H293.539V67.9746H319.509V64.8123H307.005ZM305.151 46.9409C305.547 46.9409 305.866 47.2607 305.866 47.656C305.866 48.0513 305.547 48.3711 305.151 48.3711C304.756 48.3711 304.436 48.0513 304.436 47.656C304.436 47.2607 304.756 46.9409 305.151 46.9409ZM297.383 55.1843C296.533 55.1843 295.843 54.4951 295.843 53.6449C295.843 52.7947 296.533 52.1075 297.383 52.1075C298.233 52.1075 298.922 52.7967 298.922 53.6449C298.92 54.4951 298.231 55.1843 297.383 55.1843Z" fill="white"/>
<path d="M365.681 53.99L325.255 54.1351C324.581 54.1371 324.033 53.5908 324.031 52.9174C324.029 52.244 324.575 51.6958 325.249 51.6958L365.675 51.5508C366.349 51.5488 366.897 52.0951 366.899 52.7684C366.901 53.4418 366.357 53.99 365.681 53.99Z" fill="white"/>
<path d="M365.681 47.9178L325.255 48.0628C324.581 48.0648 324.033 47.5185 324.031 46.8452C324.029 46.1718 324.575 45.6236 325.249 45.6216L365.675 45.4766C366.349 45.4746 366.897 46.0208 366.899 46.6942C366.901 47.3696 366.357 47.9158 365.681 47.9178Z" fill="white"/>
<path d="M365.681 42.3924L325.255 42.5374C324.581 42.5394 324.033 41.9931 324.031 41.3198C324.029 40.6464 324.575 40.0981 325.249 40.0981L365.675 39.9531C366.349 39.9511 366.897 40.4974 366.899 41.1708C366.901 41.8442 366.357 42.3904 365.681 42.3924Z" fill="white"/>
<path d="M349.008 59.3689L325.27 59.4802C324.597 59.4822 324.049 58.9379 324.047 58.2626C324.045 57.5892 324.591 57.0409 325.265 57.0409L349.004 56.9297C349.677 56.9277 350.225 57.474 350.225 58.1474C350.225 58.8207 349.681 59.367 349.008 59.3689Z" fill="white"/>
<path opacity="0.4" d="M274.282 74.482H196.144C192.734 74.482 189.969 71.717 189.969 68.3064V38.5545C189.969 35.1439 192.734 32.3789 196.144 32.3789H274.282C277.693 32.3789 280.458 35.1439 280.458 38.5545V68.3064C280.458 71.717 277.695 74.482 274.282 74.482Z" fill="#800080"/>
<path d="M268.41 53.8431L228.421 53.9881C227.755 53.9901 227.213 53.4498 227.211 52.7844C227.209 52.1189 227.749 51.5767 228.415 51.5747L268.404 51.4297C269.072 51.4277 269.612 51.968 269.614 52.6334C269.616 53.3008 269.078 53.8431 268.41 53.8431Z" fill="white"/>
<path d="M268.41 47.8314L228.421 47.9764C227.755 47.9784 227.213 47.4381 227.211 46.7727C227.209 46.1072 227.749 45.565 228.415 45.563L268.404 45.418C269.072 45.416 269.612 45.9563 269.614 46.6217C269.616 47.2891 269.078 47.8294 268.41 47.8314Z" fill="white"/>
<path d="M268.41 42.3666L228.421 42.5116C227.755 42.5136 227.213 41.9733 227.211 41.3078C227.209 40.6424 227.749 40.1001 228.415 40.0981L268.404 39.9531C269.072 39.9511 269.612 40.4914 269.614 41.1569C269.616 41.8243 269.078 42.3666 268.41 42.3666Z" fill="white"/>
<path d="M258.911 59.1556L228.436 59.2649C227.769 59.2669 227.229 58.7266 227.227 58.0611C227.225 57.3957 227.765 56.8534 228.43 56.8514L258.905 56.7422C259.573 56.7402 260.113 57.2805 260.115 57.9459C260.117 58.6114 259.579 59.1536 258.911 59.1556Z" fill="white"/>
<path d="M220.091 57.918H196.383C195.913 57.918 195.531 57.5366 195.531 57.0659V41.0279C195.531 40.5571 195.913 40.1758 196.383 40.1758H220.091C220.561 40.1758 220.943 40.5571 220.943 41.0279V57.0659C220.943 57.5366 220.561 57.918 220.091 57.918ZM197.236 56.2157H219.241V41.8821H197.236V56.2157Z" fill="white"/>
<path d="M215.771 63.3377H200.083C199.731 63.3377 199.445 63.0517 199.445 62.7001C199.445 62.3465 199.731 62.0625 200.083 62.0625H215.771C216.125 62.0625 216.409 62.3485 216.409 62.7001C216.409 63.0517 216.123 63.3377 215.771 63.3377Z" fill="white"/>
<path d="M213.16 59.2148H210.836L214.791 68.2091C214.966 68.6084 215.357 68.8448 215.766 68.8448C215.909 68.8448 216.054 68.815 216.193 68.7534C216.731 68.517 216.976 67.8893 216.739 67.351L213.16 59.2148Z" fill="white"/>
<path d="M203.302 59.2148L199.723 67.353C199.487 67.8913 199.731 68.519 200.269 68.7554C200.408 68.8169 200.553 68.8468 200.696 68.8468C201.106 68.8468 201.495 68.6084 201.672 68.2111L205.626 59.2168H203.302V59.2148Z" fill="white"/>
<path d="M243.992 450.036C243.992 450.036 245.057 454.885 244.977 458.749C244.487 461.43 244.981 462.219 244.981 462.219L255.15 461.351C255.15 461.351 250.654 459.144 250.97 448.656C251.286 438.17 243.992 450.036 243.992 450.036Z" fill="#FFCC99"/>
<path d="M244.855 459.565C244.855 459.565 249.275 461.204 253.643 459.969C258.78 462.34 262.399 463.276 267.071 463.866C271.743 464.458 270.915 468.301 262.931 467.769C254.948 467.237 249.378 467.604 247.605 467.781C245.831 467.958 242.992 468.194 242.873 466.953C242.754 465.711 243.413 459.154 244.855 459.565Z" fill="#201D93"/>
<path d="M212.789 450.036C212.789 450.036 213.854 454.885 213.774 458.749C213.284 461.43 213.778 462.219 213.778 462.219L223.947 461.351C223.947 461.351 219.451 459.144 219.767 448.656C220.083 438.17 212.789 450.036 212.789 450.036Z" fill="#FFCC99"/>
<path d="M213.63 459.565C213.63 459.565 218.05 461.204 222.418 459.969C227.555 462.34 231.174 463.276 235.846 463.866C240.518 464.458 239.689 468.301 231.706 467.769C223.723 467.237 218.153 467.604 216.377 467.781C214.603 467.958 211.765 468.194 211.646 466.953C211.53 465.711 212.19 459.154 213.63 459.565Z" fill="#2D24A3"/>
<path d="M247.941 303.773C247.941 303.773 254.486 372.318 254.874 381.243C255.261 390.168 255.261 393.271 254.874 398.703C254.486 404.136 257.833 449.902 257.833 449.902C257.833 449.902 242.604 453.879 238.724 450.343C238.724 450.343 239.358 400.441 237.417 391.906C235.477 383.371 227.891 340.115 227.891 340.115L236.637 295.883L247.941 303.773Z" fill="#201D93"/>
<path d="M212.566 208.379C212.566 208.379 213.205 196.447 218.124 193.247C223.042 190.045 236.2 188.881 240.242 194.411C244.284 199.941 248.603 223.949 228.862 227.041L218.63 274.259C218.63 274.259 192.003 271.536 189.965 257.278C187.929 243.02 200.052 236.385 200.052 236.385C200.052 236.385 194.232 224.401 200.344 215.953C206.454 207.507 212.566 208.379 212.566 208.379Z" fill="#3838D6"/>
<path d="M251.001 249.435C251.001 249.435 275.076 252.884 281.587 252.576C286.69 252.884 294.044 222.568 294.783 220.714C298.851 217.942 300.452 215.794 300.392 213.707C300.333 211.619 295.136 209.853 294.638 210.904C295.498 208.129 295.689 207.263 295.921 206.311C296.404 204.341 295.017 202.841 293.027 210.272C291.062 217.608 291.253 216.398 290.774 218.978C287.562 225.668 279.275 241.283 278.713 243.647C267.973 243.373 249.758 238.83 249.758 238.83L251.001 249.435Z" fill="#FFCC99"/>
<path d="M214.896 386.275C216.448 373.47 213.607 321.575 213.72 310.584C213.835 299.593 244.773 305.183 244.773 305.183C244.773 305.183 235.074 369.591 233.91 378.903C232.746 388.215 231.194 390.931 230.612 399.855C230.03 408.78 225.762 450.685 225.762 450.685C225.762 450.685 208.734 453.543 207.447 450.323C204.754 433.834 214.896 386.275 214.896 386.275Z" fill="#2D24A3"/>
<path d="M238.575 232.629L252.543 236.385C252.543 236.385 250.992 248.148 252.543 251.64H242.844C242.844 251.64 241.16 256.684 240.256 259.012C239.352 261.34 247.5 300.467 248.664 307.839C248.664 307.839 228.099 304.019 211.805 311.39C211.805 311.39 213.356 295.871 218.789 285.007C224.222 274.144 202.453 248.826 202.453 248.826C202.453 248.826 209.098 228.455 220.728 227.194C230.016 226.189 229.96 230.313 238.575 232.629Z" fill="white"/>
<path d="M237.784 198.57C237.784 198.57 242.053 210.129 239.335 215.562C236.62 220.994 230.023 220.218 230.023 220.218V232.635C230.023 232.635 229.35 233.278 228.18 233.346C226.142 233.461 220.711 229.919 220.711 229.919V201.206L237.784 198.57Z" fill="#FFCC99"/>
<path d="M198.594 248.07C198.594 248.07 177.946 271.523 179.11 274.433C180.274 277.343 203.262 290.148 205.3 291.894C207.336 293.64 213.599 300.632 213.814 299.7C214.028 298.768 217.812 296.55 218.102 294.222C218.392 291.894 216.356 289.856 216.356 289.856L207.626 288.692C207.626 288.692 191.912 275.597 191.33 273.851C190.748 272.105 209.09 254.063 209.09 254.063L198.594 248.07Z" fill="#FFCC99"/>
<path d="M196.695 246.991C196.695 246.991 208.671 230.097 216.096 230.695C223.519 231.293 223.08 242.135 216.096 249.707C209.112 257.279 206.784 260.183 206.784 260.183C206.784 260.183 198.249 255.916 196.695 246.991Z" fill="white"/>
<path d="M238.335 196.871C238.335 196.871 235.562 210.126 229.16 213.618C222.758 217.11 227.595 225.695 221.492 232.105C218.227 235.536 212.023 231.722 212.023 231.722L218.132 198.567L238.335 196.871Z" fill="#3838D6"/>
<path d="M301.503 205.598V210.798C301.503 211.368 301.652 211.805 301.949 212.11C302.246 212.407 302.663 212.556 303.201 212.556C303.746 212.556 304.167 212.407 304.464 212.11C304.761 211.805 304.91 211.368 304.91 210.798V205.598H306.607V210.786C306.607 211.5 306.45 212.106 306.137 212.604C305.833 213.093 305.419 213.462 304.898 213.711C304.384 213.96 303.81 214.084 303.176 214.084C302.551 214.084 301.981 213.96 301.467 213.711C300.962 213.462 300.56 213.093 300.264 212.604C299.967 212.106 299.818 211.5 299.818 210.786V205.598H301.503ZM309.92 208.295C310.137 207.99 310.434 207.737 310.811 207.536C311.196 207.328 311.633 207.223 312.123 207.223C312.693 207.223 313.206 207.364 313.664 207.645C314.129 207.925 314.494 208.327 314.759 208.848C315.032 209.362 315.168 209.96 315.168 210.642C315.168 211.324 315.032 211.93 314.759 212.459C314.494 212.981 314.129 213.386 313.664 213.675C313.206 213.964 312.693 214.108 312.123 214.108C311.633 214.108 311.2 214.008 310.823 213.807C310.454 213.607 310.153 213.354 309.92 213.049V217.178H308.235V207.332H309.92V208.295ZM313.447 210.642C313.447 210.241 313.363 209.895 313.194 209.607C313.034 209.31 312.817 209.085 312.544 208.933C312.279 208.78 311.991 208.704 311.678 208.704C311.373 208.704 311.084 208.784 310.811 208.945C310.546 209.097 310.329 209.322 310.161 209.619C310 209.916 309.92 210.265 309.92 210.666C309.92 211.067 310 211.416 310.161 211.713C310.329 212.01 310.546 212.239 310.811 212.399C311.084 212.552 311.373 212.628 311.678 212.628C311.991 212.628 312.279 212.548 312.544 212.387C312.817 212.227 313.034 211.998 313.194 211.701C313.363 211.404 313.447 211.051 313.447 210.642ZM319.005 207.223C319.502 207.223 319.94 207.324 320.317 207.524C320.694 207.717 320.991 207.97 321.207 208.283V207.332H322.905V214.048C322.905 214.666 322.78 215.216 322.531 215.697C322.283 216.187 321.91 216.572 321.412 216.853C320.915 217.142 320.313 217.286 319.607 217.286C318.66 217.286 317.881 217.065 317.271 216.624C316.67 216.183 316.329 215.581 316.248 214.818H317.921C318.01 215.123 318.198 215.364 318.487 215.541C318.784 215.725 319.141 215.818 319.558 215.818C320.048 215.818 320.445 215.669 320.75 215.372C321.055 215.083 321.207 214.642 321.207 214.048V213.013C320.991 213.326 320.69 213.587 320.305 213.795C319.928 214.004 319.494 214.108 319.005 214.108C318.443 214.108 317.929 213.964 317.464 213.675C316.999 213.386 316.629 212.981 316.357 212.459C316.092 211.93 315.959 211.324 315.959 210.642C315.959 209.968 316.092 209.37 316.357 208.848C316.629 208.327 316.995 207.925 317.452 207.645C317.917 207.364 318.435 207.223 319.005 207.223ZM321.207 210.666C321.207 210.257 321.127 209.908 320.967 209.619C320.806 209.322 320.59 209.097 320.317 208.945C320.044 208.784 319.751 208.704 319.438 208.704C319.125 208.704 318.836 208.78 318.571 208.933C318.307 209.085 318.09 209.31 317.921 209.607C317.761 209.895 317.681 210.241 317.681 210.642C317.681 211.043 317.761 211.396 317.921 211.701C318.09 211.998 318.307 212.227 318.571 212.387C318.844 212.548 319.133 212.628 319.438 212.628C319.751 212.628 320.044 212.552 320.317 212.399C320.59 212.239 320.806 212.014 320.967 211.725C321.127 211.428 321.207 211.075 321.207 210.666ZM324.117 210.642C324.117 209.968 324.25 209.37 324.514 208.848C324.787 208.327 325.152 207.925 325.61 207.645C326.075 207.364 326.593 207.223 327.162 207.223C327.66 207.223 328.093 207.324 328.462 207.524C328.84 207.725 329.14 207.978 329.365 208.283V207.332H331.062V214H329.365V213.025C329.148 213.338 328.848 213.599 328.462 213.807C328.085 214.008 327.648 214.108 327.15 214.108C326.589 214.108 326.075 213.964 325.61 213.675C325.152 213.386 324.787 212.981 324.514 212.459C324.25 211.93 324.117 211.324 324.117 210.642ZM329.365 210.666C329.365 210.257 329.285 209.908 329.124 209.619C328.964 209.322 328.747 209.097 328.474 208.945C328.202 208.784 327.909 208.704 327.596 208.704C327.283 208.704 326.994 208.78 326.729 208.933C326.464 209.085 326.248 209.31 326.079 209.607C325.919 209.895 325.838 210.241 325.838 210.642C325.838 211.043 325.919 211.396 326.079 211.701C326.248 211.998 326.464 212.227 326.729 212.387C327.002 212.548 327.291 212.628 327.596 212.628C327.909 212.628 328.202 212.552 328.474 212.399C328.747 212.239 328.964 212.014 329.124 211.725C329.285 211.428 329.365 211.075 329.365 210.666ZM334.393 208.367C334.61 208.014 334.891 207.737 335.236 207.536C335.589 207.336 335.99 207.235 336.439 207.235V209.005H335.994C335.465 209.005 335.063 209.129 334.79 209.378C334.526 209.627 334.393 210.06 334.393 210.678V214H332.708V207.332H334.393V208.367ZM337.141 210.642C337.141 209.968 337.274 209.37 337.538 208.848C337.811 208.327 338.18 207.925 338.646 207.645C339.111 207.364 339.629 207.223 340.199 207.223C340.632 207.223 341.045 207.32 341.438 207.512C341.831 207.697 342.144 207.946 342.377 208.258V205.093H344.086V214H342.377V213.013C342.169 213.342 341.876 213.607 341.498 213.807C341.121 214.008 340.684 214.108 340.186 214.108C339.625 214.108 339.111 213.964 338.646 213.675C338.18 213.386 337.811 212.981 337.538 212.459C337.274 211.93 337.141 211.324 337.141 210.642ZM342.389 210.666C342.389 210.257 342.309 209.908 342.148 209.619C341.988 209.322 341.771 209.097 341.498 208.945C341.226 208.784 340.933 208.704 340.62 208.704C340.307 208.704 340.018 208.78 339.753 208.933C339.488 209.085 339.272 209.31 339.103 209.607C338.943 209.895 338.862 210.241 338.862 210.642C338.862 211.043 338.943 211.396 339.103 211.701C339.272 211.998 339.488 212.227 339.753 212.387C340.026 212.548 340.315 212.628 340.62 212.628C340.933 212.628 341.226 212.552 341.498 212.399C341.771 212.239 341.988 212.014 342.148 211.725C342.309 211.428 342.389 211.075 342.389 210.666ZM351.931 210.521C351.931 210.762 351.915 210.979 351.883 211.171H347.008C347.048 211.653 347.217 212.03 347.514 212.303C347.811 212.576 348.176 212.712 348.609 212.712C349.235 212.712 349.68 212.443 349.945 211.906H351.763C351.57 212.548 351.201 213.077 350.655 213.494C350.11 213.904 349.439 214.108 348.645 214.108C348.003 214.108 347.425 213.968 346.912 213.687C346.406 213.398 346.009 212.993 345.72 212.471C345.439 211.95 345.299 211.348 345.299 210.666C345.299 209.976 345.439 209.37 345.72 208.848C346.001 208.327 346.394 207.925 346.9 207.645C347.405 207.364 347.987 207.223 348.645 207.223C349.279 207.223 349.845 207.36 350.342 207.633C350.848 207.905 351.237 208.295 351.51 208.8C351.791 209.298 351.931 209.871 351.931 210.521ZM350.186 210.04C350.178 209.607 350.021 209.262 349.716 209.005C349.411 208.74 349.038 208.608 348.597 208.608C348.18 208.608 347.827 208.736 347.538 208.993C347.257 209.241 347.084 209.591 347.02 210.04H350.186ZM359.724 207.235C360.519 207.235 361.161 207.488 361.65 207.994C362.14 208.491 362.385 209.189 362.385 210.088V214H360.699V210.317C360.699 209.787 360.567 209.382 360.302 209.101C360.037 208.812 359.676 208.668 359.219 208.668C358.754 208.668 358.384 208.812 358.112 209.101C357.847 209.382 357.714 209.787 357.714 210.317V214H356.029V207.332H357.714V208.162C357.939 207.873 358.224 207.649 358.569 207.488C358.922 207.32 359.307 207.235 359.724 207.235ZM366.948 214.108C366.306 214.108 365.728 213.968 365.215 213.687C364.701 213.398 364.296 212.993 363.999 212.471C363.71 211.95 363.566 211.348 363.566 210.666C363.566 209.984 363.714 209.382 364.011 208.86C364.316 208.339 364.729 207.938 365.251 207.657C365.773 207.368 366.354 207.223 366.996 207.223C367.638 207.223 368.22 207.368 368.742 207.657C369.263 207.938 369.672 208.339 369.969 208.86C370.274 209.382 370.427 209.984 370.427 210.666C370.427 211.348 370.27 211.95 369.957 212.471C369.652 212.993 369.235 213.398 368.705 213.687C368.184 213.968 367.598 214.108 366.948 214.108ZM366.948 212.64C367.253 212.64 367.538 212.568 367.803 212.423C368.076 212.271 368.292 212.046 368.453 211.749C368.613 211.452 368.693 211.091 368.693 210.666C368.693 210.032 368.525 209.546 368.188 209.209C367.859 208.864 367.454 208.692 366.972 208.692C366.491 208.692 366.085 208.864 365.756 209.209C365.435 209.546 365.275 210.032 365.275 210.666C365.275 211.3 365.431 211.789 365.744 212.134C366.065 212.471 366.467 212.64 366.948 212.64ZM380.907 207.332L378.957 214H377.14L375.924 209.342L374.708 214H372.879L370.917 207.332H372.626L373.805 212.411L375.081 207.332H376.863L378.114 212.399L379.294 207.332H380.907Z" fill="white"/>
<defs>
<filter id="filter0_d_844_2606" x="282.2" y="189.2" width="114.6" height="48.6" filterUnits="userSpaceOnUse" color-interpolation-filters="sRGB">
<feFlood flood-opacity="0" result="BackgroundImageFix"/>
<feColorMatrix in="SourceAlpha" type="matrix" values="0 0 0 0 0 0 0 0 0 0 0 0 0 0 0 0 0 0 127 0" result="hardAlpha"/>
<feOffset dy="4"/>
<feGaussianBlur stdDeviation="2.9"/>
<feComposite in2="hardAlpha" operator="out"/>
<feColorMatrix type="matrix" values="0 0 0 0 0 0 0 0 0 0 0 0 0 0 0 0 0 0 0.36 0"/>
<feBlend mode="normal" in2="BackgroundImageFix" result="effect1_dropShadow_844_2606"/>
<feBlend mode="normal" in="SourceGraphic" in2="effect1_dropShadow_844_2606" result="shape"/>
</filter>
</defs>
</svg>
